<?xml version="1.0" encoding="utf-8"?>
<!-- Generator: Adobe Illustrator 19.0.0, SVG Export Plug-In . SVG Version: 6.00 Build 0)  -->
<svg version="1.1" id="Layer_1" xmlns="http://www.w3.org/2000/svg" xmlns:xlink="http://www.w3.org/1999/xlink" x="0px" y="0px"
	 viewBox="0 0 40 40" style="enable-background:new 0 0 40 40;" xml:space="preserve">
<style type="text/css">
	.st0{display:none;}
	.st1{fill-rule:evenodd;clip-rule:evenodd;}
</style>
<path id="XMLID_3_" class="st0" d="M29.5,24c-1.1,1.4-2.5,2.5-4.4,3.5c-1.4,0.7-2,1.9-2,3.4c0,1,0.3,1.9,0.9,2.5
	c0.6,0.7,1.5,1,2.6,1c1.7,0,3.6-0.9,5.7-2.6c2.1-1.8,3.9-4.1,5.4-7.1c1.5-3,2.2-6.2,2.2-9.6c0-3.7-0.9-6.6-2.5-8.7
	c-1.7-2-3.8-3-6.3-3c-2.3,0-4.3,0.7-5.9,2.2C23.7,7,22.9,8.8,22.9,11c0,2.3,0.8,4.1,2.4,5.6c1.6,1.5,3.4,2.3,5.3,2.3l0.7,0
	C31.2,21,30.6,22.7,29.5,24z M6.6,24c-1,1.3-2.4,2.5-4.3,3.6c-1.4,0.7-2,1.8-2,3.4c0,1.1,0.3,1.9,0.9,2.6c0.6,0.6,1.5,1,2.6,1
	C5,34.5,6.5,34,8,33c1.6-1,3-2.4,4.4-4.2c1.4-1.8,2.5-3.8,3.3-6.2c0.9-2.4,1.3-4.9,1.3-7.5c0-3.7-0.8-6.6-2.5-8.7
	c-1.7-2.1-3.8-3.1-6.4-3.1c-2.3,0-4.3,0.8-5.9,2.2C0.8,7.1,0,8.9,0,11.1c0,2.3,0.8,4.1,2.4,5.6C4,18.2,5.7,19,7.7,19l0.7,0
	C8.1,21,7.6,22.7,6.6,24z"/>
<path class="st1" d="M27,39.5L7.5,20L27,0.5L32.5,6l-14,14l14,14L27,39.5z"/>
</svg>
