<?xml version="1.0" encoding="utf-8"?>
<!-- Generator: Adobe Illustrator 19.0.0, SVG Export Plug-In . SVG Version: 6.00 Build 0)  -->
<svg version="1.1" id="Layer_1" xmlns="http://www.w3.org/2000/svg" xmlns:xlink="http://www.w3.org/1999/xlink" x="0px" y="0px"
	 viewBox="0 0 105 105" style="enable-background:new 0 0 105 105;" xml:space="preserve">
<g>
	<g id="XMLID_43_">
		<path id="XMLID_44_" d="M71.5,35c0.3-1.1-0.8-2.2-1.9-1.9l-12.3,3.7c0,0,0,0,0,0l0,0c0,0,0,0,0,0c-0.1,0-0.1,0-0.2,0.1
			c0,0,0,0,0,0c0,0-0.1,0-0.1,0.1c-0.1,0-0.1,0.1-0.2,0.2c0,0,0,0,0,0l-19.1,19c0,0,0,0,0,0s0,0,0,0L32.8,61c-0.6,0.6-0.6,1.5,0,2.1
			l8.5,8.5c0.6,0.6,1.5,0.6,2.1,0l4.8-4.7c0,0,0,0,0,0s0,0,0,0l19.1-19c0,0,0,0,0,0c0.1-0.1,0.1-0.1,0.1-0.2c0,0,0-0.1,0.1-0.1
			c0,0,0,0,0,0c0-0.1,0.1-0.1,0.1-0.2c0,0,0,0,0,0l0,0c0,0,0,0,0,0L71.5,35z M65.3,44.7l-3.5-1.9l-1.8-3.6l7.8-2.4L65.3,44.7z
			 M47.1,63.7l-6.3-6.4l16.6-16.5l2,3.8c0.1,0.1,0.2,0.3,0.3,0.4c0.1,0.1,0.2,0.2,0.4,0.3l3.8,2L47.1,63.7z M42.3,68.5L36,62.1
			l2.7-2.6l6.3,6.4L42.3,68.5z"/>
	</g>
</g>
</svg>
