<?xml version="1.0" encoding="utf-8"?>
<!-- Generator: Adobe Illustrator 19.0.0, SVG Export Plug-In . SVG Version: 6.00 Build 0)  -->
<svg version="1.1" id="Layer_1" xmlns="http://www.w3.org/2000/svg" xmlns:xlink="http://www.w3.org/1999/xlink" x="0px" y="0px"
	 viewBox="0 0 40 40" style="enable-background:new 0 0 40 40;" xml:space="preserve">
<path d="M10.5,13.7c1.1-1.4,2.5-2.5,4.4-3.5c1.4-0.7,2-1.9,2-3.4c0-1-0.3-1.9-0.9-2.5c-0.6-0.7-1.5-1-2.6-1c-1.7,0-3.6,0.9-5.7,2.6
	C5.5,7.7,3.7,10,2.2,13C0.8,16,0,19.3,0,22.7c0,3.7,0.8,6.6,2.5,8.7c1.7,2,3.8,3,6.3,3c2.3,0,4.3-0.7,5.9-2.2
	c1.6-1.4,2.4-3.3,2.4-5.5c0-2.3-0.8-4.1-2.4-5.6c-1.6-1.5-3.4-2.3-5.3-2.3H8.7C8.8,16.8,9.4,15.1,10.5,13.7z M33.4,13.8
	c1-1.3,2.4-2.5,4.3-3.6c1.4-0.7,2-1.8,2-3.4c0-1.1-0.3-1.9-0.9-2.6c-0.6-0.6-1.5-1-2.6-1c-1.2,0-2.7,0.5-4.2,1.5
	c-1.6,1-3.1,2.4-4.4,4.2c-1.4,1.8-2.5,3.8-3.4,6.2c-0.9,2.4-1.3,4.9-1.3,7.5c0,3.7,0.8,6.6,2.5,8.7c1.7,2.1,3.8,3.1,6.3,3.1
	c2.3,0,4.3-0.7,5.9-2.2c1.6-1.5,2.4-3.3,2.4-5.5c0-2.3-0.8-4.1-2.4-5.6c-1.6-1.5-3.3-2.3-5.3-2.3h-0.7
	C31.9,16.8,32.5,15.1,33.4,13.8z"/>
</svg>
